<svg width="72" height="23" viewBox="0 0 72 23" fill="none" xmlns="http://www.w3.org/2000/svg">
<path d="M7.09804 0.164503H-0.00585938V22.9332H7.09804C14.5948 22.9332 19.2107 18.6538 19.2107 11.5978C19.2107 4.54184 14.5948 0.164503 7.09804 0.164503ZM2.97319 20.4832V2.58184H7.09804C13.0561 2.58184 16.1661 6.0445 16.1661 11.5978C16.1661 17.1512 13.0561 20.4832 7.09804 20.4832H2.97319ZM35.4164 0.131836H23.1401V22.9332H35.4164V20.4832H26.1191V12.6432H34.4343V10.1932H26.1191V2.58184H35.4164V0.131836ZM52.2004 0.131836H39.9241V22.9332H52.2004V20.4832H42.9031V12.6432H51.2183V10.1932H42.9031V2.58184H52.2004V0.131836ZM59.6872 10.9772V2.6145H64.0739C67.4785 2.6145 68.919 4.1825 68.919 6.8285C68.919 9.3765 67.4785 10.9772 64.0739 10.9772H59.6872ZM71.9635 6.8285C71.9635 3.1045 69.4427 0.164503 64.0739 0.164503H56.7081V22.9332H59.6872V13.4272H64.0739C69.7374 13.4272 71.9635 10.2912 71.9635 6.8285Z" fill="black"/>
</svg>
