<svg width="160" height="25" viewBox="0 0 160 25" fill="none" xmlns="http://www.w3.org/2000/svg">
<path d="M0.659058 5.4768H6.7481V23.9335H12.3461V5.4768H18.436V1.00147H0.659058V5.4768ZM35.5508 23.9335H41.1488V1.00147H35.5508V9.9848H26.8428V1.00147H21.2448V23.9335H26.8428V14.4928H35.5508V23.9335ZM67.8113 12.4021C67.8113 5.50947 62.6062 0.674805 56.0588 0.674805C49.5442 0.674805 44.2408 5.50947 44.2408 12.4021C44.2408 19.2948 49.5442 24.1621 56.0588 24.1621C62.5734 24.1621 67.8113 19.2948 67.8113 12.4021ZM49.9697 12.4021C49.9697 8.3188 52.3268 5.73814 56.0588 5.73814C59.7253 5.73814 62.1151 8.3188 62.1151 12.4021C62.1151 16.4201 59.7253 19.0661 56.0588 19.0661C52.3268 19.0661 49.9697 16.4201 49.9697 12.4021ZM70.8264 14.6888C70.8264 21.0261 74.984 24.1621 80.3201 24.1621C85.6234 24.1621 90.0756 21.0261 90.0756 14.6888V1.00147H84.4776V14.7215C84.4776 17.4328 83.07 19.0008 80.4183 19.0008C77.7666 19.0008 76.4244 17.4328 76.4244 14.7215V1.00147H70.8264V14.6888ZM104.745 0.740138C97.8703 0.740138 93.058 5.5748 93.058 12.4348C93.058 19.2948 97.903 24.0968 104.778 24.0968C110.834 24.0968 114.664 20.1441 115.843 16.1915V10.9975H103.665V15.1135H110.769C109.917 17.6941 107.986 19.1641 105.203 19.1641C101.177 19.1641 98.7542 16.6815 98.7542 12.4348C98.7542 8.44947 101.144 5.90147 104.745 5.90147C106.84 5.90147 108.412 6.71814 109.263 8.25347H115.45C114.239 3.54947 110.245 0.740138 104.745 0.740138ZM133.249 23.9335H138.847V1.00147H133.249V9.9848H124.541V1.00147H118.943V23.9335H124.541V14.4928H133.249V23.9335ZM141.644 5.4768H147.733V23.9335H153.331V5.4768H159.42V1.00147H141.644V5.4768Z" fill="#0029FF"/>
</svg>
